<?xml version="1.0" standalone="no"?>
<!DOCTYPE svg PUBLIC "-//W3C//DTD SVG 20010904//EN"
 "http://www.w3.org/TR/2001/REC-SVG-20010904/DTD/svg10.dtd">
<svg version="1.0" xmlns="http://www.w3.org/2000/svg"
 width="422.000000pt" height="416.000000pt" viewBox="0 0 422.000000 416.000000"
 preserveAspectRatio="xMidYMid meet">
<metadata>
Created by potrace 1.16, written by Peter Selinger 2001-2019
</metadata>
<g transform="translate(0.000000,416.000000) scale(0.100000,-0.100000)"
fill="#000000" stroke="none">
<path d="M1634 4140 c-299 -68 -572 -193 -770 -354 -253 -206 -418 -412 -555
-691 -162 -333 -226 -652 -201 -1009 23 -321 79 -529 214 -800 82 -166 144
-252 283 -392 174 -176 351 -301 575 -408 709 -337 1557 -254 2185 214 385
287 657 712 744 1164 76 392 17 834 -159 1201 -257 533 -770 933 -1377 1070
-105 24 -120 25 -483 24 -326 -1 -386 -3 -456 -19z m736 -325 c130 -14 165
-26 235 -83 65 -53 99 -102 99 -146 1 -35 5 -43 31 -55 40 -18 141 -117 156
-152 9 -24 8 -34 -12 -66 -42 -71 -124 -133 -176 -133 -32 0 -73 -28 -73 -50
0 -5 -16 -28 -37 -50 -39 -44 -38 -47 17 -77 55 -29 205 -129 268 -180 85 -68
250 -240 269 -281 9 -21 24 -49 34 -63 40 -58 69 -161 76 -264 14 -238 -81
-534 -254 -793 -63 -94 -220 -246 -303 -293 -16 -9 -41 -24 -57 -35 -56 -38
-183 -79 -298 -98 -102 -17 -367 -15 -500 3 -122 17 -163 34 -231 99 -72 67
-98 112 -89 152 5 24 1 31 -32 51 -64 39 -107 77 -147 129 -46 60 -44 77 16
145 58 66 122 105 172 105 38 0 42 3 60 42 11 23 32 55 48 71 15 17 28 36 28
42 0 7 -24 31 -53 54 -78 60 -223 213 -294 311 -75 104 -139 235 -169 350 -30
116 -31 302 -3 416 10 43 24 87 29 96 6 10 10 26 10 36 0 10 3 22 8 26 4 4 7
11 8 14 5 43 102 229 164 316 57 81 165 188 240 238 199 134 385 164 760 123z
m1240 -2525 c23 -26 27 -28 37 -12 11 15 13 15 23 2 6 -8 8 -26 4 -40 -3 -14
-7 -46 -8 -72 -4 -65 -28 -92 -78 -85 l-38 5 0 -53 c0 -72 -23 -100 -72 -91
-42 8 -83 50 -93 95 l-7 33 -24 -41 c-13 -23 -44 -65 -68 -94 -25 -28 -44 -52
-42 -54 1 -2 40 8 87 22 107 31 123 31 149 -2 36 -46 26 -54 -119 -89 -74 -18
-138 -37 -143 -42 -7 -7 -6 -29 1 -62 8 -36 8 -57 1 -71 -22 -40 -41 -15 -54
72 -5 35 -12 48 -26 52 -25 6 -28 63 -5 93 16 22 21 154 5 154 -12 0 -34 -41
-33 -60 1 -8 -16 -30 -38 -49 -49 -42 -69 -32 -69 38 0 134 231 324 331 271
17 -9 19 -7 19 19 0 16 6 31 15 35 23 8 46 -23 43 -58 -2 -24 -8 -31 -24 -30
-14 0 -20 -4 -17 -13 6 -16 15 -17 31 -1 20 20 42 -13 51 -73 4 -30 10 -60 14
-66 14 -23 36 -1 46 44 8 38 6 51 -7 72 -22 33 -23 150 -3 175 21 26 79 13
111 -24z m-2606 -31 c14 -17 26 -34 26 -38 0 -4 -16 -22 -35 -41 -41 -40 -42
-46 -13 -77 28 -30 36 -29 81 8 l38 31 58 -53 c32 -30 59 -61 60 -69 0 -8 -24
-48 -54 -89 -60 -80 -71 -125 -35 -136 34 -11 53 3 113 85 33 44 63 80 69 80
16 0 68 -40 68 -53 -1 -21 -128 -191 -157 -209 -42 -26 -83 -22 -137 14 -90
59 -107 121 -56 201 17 26 30 50 30 53 0 3 -17 -11 -37 -30 -52 -48 -89 -76
-100 -76 -5 0 -22 13 -37 29 -30 32 -29 43 11 74 41 33 46 53 19 84 -21 24
-26 26 -47 15 -13 -6 -36 -22 -51 -34 l-28 -22 -30 29 c-17 16 -29 35 -28 42
4 17 219 212 235 213 6 0 23 -14 37 -31z m458 -385 c27 -14 30 -19 25 -52 -3
-21 -9 -59 -12 -87 l-6 -50 50 55 c28 30 51 58 51 63 1 21 100 -17 100 -39 0
-6 -12 -52 -26 -100 -35 -118 -43 -154 -35 -154 3 0 38 52 76 115 76 124 79
126 156 105 l36 -10 11 -92 c7 -51 15 -128 18 -170 6 -74 6 -78 -14 -78 -41 0
-69 18 -75 48 -5 23 -13 31 -38 36 -55 11 -78 7 -90 -15 -9 -18 -17 -20 -52
-15 -23 4 -44 11 -47 15 -3 4 -16 11 -30 14 -14 3 -33 12 -43 20 -18 13 -18
15 2 82 12 37 20 70 18 72 -2 2 -21 -18 -42 -44 -57 -71 -63 -75 -97 -57 -28
15 -28 16 -22 79 4 36 4 65 1 65 -3 0 -15 -15 -26 -32 -45 -71 -45 -71 -85
-54 -20 8 -36 22 -36 31 0 28 163 264 183 265 10 0 32 -7 49 -16z m1506 -217
c34 -37 62 -73 62 -81 0 -7 -19 -19 -41 -26 -37 -13 -43 -12 -54 3 -15 21 -24
21 -75 1 -34 -14 -40 -21 -40 -45 0 -31 -30 -58 -72 -63 -12 -2 -30 -6 -38 -9
-26 -11 -231 -57 -251 -57 -25 0 -24 6 7 87 14 38 34 92 45 122 l19 53 -55 -7
c-53 -6 -55 -6 -65 21 -6 15 -9 32 -7 38 5 11 215 67 251 66 22 0 23 5 -33
-149 l-41 -114 46 7 c26 3 58 6 71 6 26 0 26 4 7 213 l-5 57 53 25 53 25 50
-53 c28 -29 78 -83 113 -120z m-876 -34 c29 -43 58 -77 63 -75 6 1 12 32 15
69 l5 68 43 -1 c23 0 44 -3 47 -5 2 -3 1 -74 -3 -159 l-7 -155 -46 -3 -46 -3
-53 81 c-29 44 -56 80 -60 80 -9 0 -20 -62 -20 -112 l0 -38 -46 0 -46 0 3 158
c2 86 4 160 7 165 2 4 23 7 47 7 43 0 44 -1 97 -77z m288 60 c0 -10 7 -78 16
-152 8 -73 13 -140 10 -147 -3 -9 -22 -14 -51 -14 -37 0 -45 3 -45 19 0 26
-19 217 -26 263 -6 40 0 45 64 47 24 1 32 -3 32 -16z"/>
<path d="M1955 3679 c-143 -21 -294 -90 -389 -178 -113 -106 -214 -296 -273
-511 -25 -94 -25 -359 0 -450 45 -161 160 -345 293 -469 147 -138 358 -272
439 -279 68 -6 86 13 62 63 -12 25 -48 55 -134 113 -88 59 -124 89 -140 119
-24 43 -22 53 11 53 23 0 51 -15 311 -162 167 -95 223 -116 264 -103 46 14 15
83 -57 126 -156 96 -580 375 -594 391 -25 28 -22 47 6 54 32 8 74 -12 291
-135 181 -104 240 -126 270 -101 41 34 6 79 -150 185 -299 205 -504 387 -616
550 -80 115 -80 111 -1 134 209 61 358 76 662 66 228 -7 279 -3 259 21 -16 19
-3 30 16 14 8 -7 15 -8 15 -3 0 25 -48 46 -134 58 -328 48 -371 57 -390 87 -8
14 -7 22 7 35 16 16 31 16 269 -2 139 -11 292 -20 340 -20 49 0 88 -3 88 -6 0
-11 49 3 60 16 9 11 6 12 -12 8 -17 -3 -19 -2 -9 5 12 9 12 13 -3 28 -20 19
-39 23 -297 64 -102 16 -198 34 -212 39 -38 15 -33 39 10 58 31 12 61 14 169
8 139 -7 174 -1 174 34 0 24 -29 49 -71 61 -115 33 -398 48 -534 29z"/>
<path d="M1960 3003 c-82 -4 -274 -24 -283 -30 -12 -7 143 -171 230 -242 141
-115 133 -110 153 -86 11 14 4 25 -48 76 -34 33 -69 73 -77 90 -15 29 -15 32
9 72 13 23 40 57 60 76 30 30 40 55 18 49 -4 -1 -32 -3 -62 -5z"/>
<path d="M2439 2932 c7 -6 10 -15 6 -22 -5 -9 -1 -10 16 -6 20 6 21 5 7 -4
-10 -6 -18 -18 -18 -27 0 -15 2 -14 13 2 11 14 16 15 22 5 5 -9 0 -20 -16 -33
-24 -19 -24 -20 -1 -13 13 5 22 3 22 -3 0 -6 -5 -11 -12 -11 -6 0 17 -19 53
-43 65 -44 118 -114 103 -138 -4 -7 -22 -9 -49 -5 -51 6 -66 -13 -35 -44 23
-23 25 -36 8 -44 -10 -5 -10 -7 0 -12 6 -3 12 -12 12 -20 0 -9 5 -12 10 -9 6
3 10 2 10 -4 0 -5 22 -25 49 -45 73 -54 74 -91 3 -99 -43 -5 -50 -14 -19 -26
24 -9 35 -35 43 -98 1 -11 5 -30 9 -42 5 -15 2 -21 -10 -21 -9 0 -13 -4 -10
-10 3 -5 18 -10 33 -10 21 0 24 -2 12 -10 -13 -8 -13 -11 1 -22 29 -23 137
-167 180 -238 23 -39 46 -70 53 -70 15 0 87 48 104 68 10 14 12 13 12 -5 0
-12 -5 -23 -12 -25 -8 -3 -8 -9 -1 -22 8 -14 16 4 43 86 79 244 38 493 -108
660 -109 124 -234 219 -404 307 -87 45 -162 76 -129 53z"/>
<path d="M2407 2142 c-23 -26 -21 -34 15 -57 18 -11 56 -49 86 -83 46 -56 53
-69 50 -100 -3 -42 -5 -41 85 -28 34 5 61 14 64 22 9 25 -68 112 -193 220 -56
48 -82 54 -107 26z"/>
</g>
</svg>
